:SAMPLES-PER-SECOND 30
:FRAME-RANGE 1-668
:FULLY-SPECIFIED
:DEGREES
397
root  -10.1437 38.778 26.0687 178.325 -61.6554 -173.384
RightUpLeg  -25.6437 12.866 0.417361
RightLeg  15.8486 -2.13243 -0.88695
RightFoot  -6.05264 -0.453343 8.90444
RightToes  5.38607e-012 1.2921e-014 -6.02303e-014
Spine  -7.57462 -5.79631 -4.15557
Spine1  10.5719 -6.55627 2.7379
HEad  32.5592 23.1332 0.457794
LeftShoulder1  0.407107 2.11773 -28.4609
LeftArm  -5.15025 8.84328 -39.4397
LeftForeArm  39.7799 -2.94379 -10.87
LeftHand  -0.0257383 5.11221 -2.45615
RightShoulder  0.553675 -1.71345 28.4998
RightArm  -22.7116 -6.42885 51.5858
RightForeArm  75.0271 -5.43577 5.52679
RightHand  0.0690522 -6.33484 -11.1927
LeftUpLeg  1.356 -3.20935 -4.89975
LeftLeg  17.7858 -5.63119 -0.037275
LeftFoot  -18.4704 0.628467 8.28787
LeftToes  -6.11857e-011 5.00151e-011 -2.22593e-011
398
root  -10.9249 38.718 25.9123 178.325 -63.8563 -173.092
RightUpLeg  -25.8541 8.16656 2.67563
RightLeg  9.89436 2.72009 -0.260628
RightFoot  -5.45913 -0.54685 9.89498
RightToes  5.38607e-012 1.2921e-014 -6.02303e-014
Spine  -7.83445 -5.722 -3.74926
Spine1  10.6179 -6.40412 2.69015
HEad  32.3464 21.6383 0.448406
LeftShoulder1  0.478453 1.88971 -27.9617
LeftArm  -4.93658 7.91967 -39.6356
LeftForeArm  38.9648 -3.90408 -10.844
LeftHand  -0.0268161 5.00687 -1.78021
RightShoulder  0.588638 -1.60596 28.3801
RightArm  -20.2108 -6.02935 51.4393
RightForeArm  75.9178 -5.60964 6.82206
RightHand  0.119047 -6.82613 -11.5047
LeftUpLeg  2.53366 -3.40202 -4.95898
LeftLeg  17.2689 -7.36564 -0.54329
LeftFoot  -18.4309 0.655307 8.76797
LeftToes  -6.11857e-011 5.00151e-011 -2.22593e-011
399
root  -11.7653 38.6415 25.7421 178.126 -65.8552 -172.775
RightUpLeg  -25.893 5.8812 3.94381
RightLeg  5.07716 3.83913 0.149547
RightFoot  -5.56341 -0.576008 10.6323
RightToes  5.38607e-012 1.2921e-014 -6.02303e-014
Spine  -7.99692 -5.62667 -3.307
Spine1  10.7144 -6.27635 2.61834
HEad  31.8256 19.9784 0.241747
LeftShoulder1  0.611777 1.45748 -27.2468
LeftArm  -3.65375 6.9219 -40.0916
LeftForeArm  38.2503 -5.1889 -10.9569
LeftHand  -0.0293504 5.04459 -0.53762
RightShoulder  0.639438 -1.44996 28.2352
RightArm  -18.2154 -5.52885 51.0599
RightForeArm  76.4529 -5.74858 7.82394
RightHand  0.145122 -7.09793 -11.5051
LeftUpLeg  3.9084 -4.03767 -5.15153
LeftLeg  16.9937 -8.46809 -0.827655
LeftFoot  -18.3477 0.665158 9.03967
LeftToes  -6.11857e-011 5.00151e-011 -2.22593e-011
400
root  -12.6907 38.4821 25.5573 178.277 -67.619 -172.92
RightUpLeg  -25.9156 5.59142 4.24782
RightLeg  2.55608 2.18171 0.662419
RightFoot  -6.5004 -0.512773 11.0486
RightToes  5.38607e-012 1.2921e-014 -6.02303e-014
Spine  -8.16449 -5.55521 -3.1201
Spine1  10.6567 -6.20453 2.68487
HEad  31.4908 18.2463 -0.197649
LeftShoulder1  0.751544 0.998419 -26.6993
LeftArm  -0.15677 5.80484 -40.5617
LeftForeArm  36.942 -6.90739 -11.2079
LeftHand  -0.0287783 5.24846 1.05222
RightShoulder  0.701299 -1.26232 28.1297
RightArm  -17.1172 -4.5481 50.3217
RightForeArm  76.6423 -5.82418 8.34682
RightHand  0.137105 -7.0047 -11.5659
LeftUpLeg  5.03729 -5.27475 -5.61108
LeftLeg  17.7564 -8.77508 -1.33266
LeftFoot  -18.5202 0.688064 9.16893
LeftToes  -6.11857e-011 5.00151e-011 -2.22593e-011
401
root  -13.7079 38.2919 25.3684 178.223 -69.4867 -172.955
RightUpLeg  -26.0818 5.57457 4.4791
RightLeg  3.36498 0.716507 0.738159
RightFoot  -6.96267 -0.468204 10.9724
RightToes  5.38607e-012 1.2921e-014 -6.02303e-014
Spine  -8.42695 -5.62923 -2.83127
Spine1  10.8195 -6.33675 2.76106
HEad  31.195 16.4315 -0.758815
LeftShoulder1  0.846159 0.658681 -26.0706
LeftArm  4.75078 4.69478 -41.3084
LeftForeArm  34.7059 -8.89998 -11.2296
LeftHand  -0.0260562 5.44646 2.31439
RightShoulder  0.696487 -1.26143 27.8679
RightArm  -17.4232 -3.58518 49.8486
RightForeArm  77.1284 -5.77213 8.1483
RightHand  0.145422 -7.13688 -11.9121
LeftUpLeg  6.1588 -7.346 -6.17061
LeftLeg  19.1005 -8.43087 -2.02167
LeftFoot  -18.5708 0.68471 9.04749
LeftToes  -6.11857e-011 5.00151e-011 -2.22593e-011
402
root  -14.797 38.1736 25.1895 176.818 -71.6389 -171.735
RightUpLeg  -25.9754 5.59465 4.94892
RightLeg  6.268 1.22359 0.469965
RightFoot  -5.80037 -0.411852 7.68205
RightToes  5.38607e-012 1.2921e-014 -6.02303e-014
Spine  -8.55853 -5.76402 -1.98794
Spine1  10.9486 -6.69968 3.08724
HEad  30.8651 14.3983 -1.70188
LeftShoulder1  0.929331 0.330939 -25.3153
LeftArm  7.7524 4.04492 -42.6384
LeftForeArm  33.064 -10.3234 -10.9384
LeftHand  -0.0292381 5.24047 2.85566
RightShoulder  0.657987 -1.3483 27.3739
RightArm  -18.6942 -3.17811 49.2545
RightForeArm  77.176 -5.64778 7.3847
RightHand  0.169647 -7.1842 -12.4684
LeftUpLeg  7.51953 -9.50118 -6.26794
LeftLeg  20.385 -8.36125 -2.95072
LeftFoot  -17.8792 0.604326 8.67755
LeftToes  -6.11857e-011 5.00151e-011 -2.22593e-011
403
root  -15.9372 38.2529 25.0252 172.514 -73.8166 -167.409
RightUpLeg  -25.7203 6.87018 5.60114
RightLeg  8.37685 1.11807 -0.534034
RightFoot  -0.802917 -0.465621 4.98522
RightToes  5.38607e-012 1.2921e-014 -6.02303e-014
Spine  -9.12321 -5.73475 0.0466738
Spine1  11.5237 -7.10785 3.71466
HEad  30.7012 12.0147 -2.83462
LeftShoulder1  1.02531 -0.00365531 -25.0469
LeftArm  10.3643 3.36308 -43.9643
LeftForeArm  31.0141 -11.3115 -10.7304
LeftHand  -0.0340099 4.99655 2.85655
RightShoulder  0.616157 -1.45848 27.0766
RightArm  -19.7625 -3.34851 47.9973
RightForeArm  75.3646 -5.62573 6.77981
RightHand  0.204426 -7.40294 -13.1008
LeftUpLeg  8.83541 -10.4061 -5.21711
LeftLeg  21.2715 -9.83556 -3.87165
LeftFoot  -15.7136 0.392703 7.79634
LeftToes  -6.11857e-011 5.00151e-011 -2.22593e-011
404
root  -17.1563 38.2497 24.8679 165.74 -75.3122 -160.61
RightUpLeg  -26.0011 7.15823 6.39406
RightLeg  12.028 -0.0818813 -0.701533
RightFoot  2.43129 -0.57016 4.85507
RightToes  5.38607e-012 1.2921e-014 -6.02303e-014
Spine  -9.34366 -5.54505 2.84069
Spine1  11.3992 -7.20372 4.09507
HEad  30.8937 9.56731 -3.87206
LeftShoulder1  1.11308 -0.24711 -25.4114
LeftArm  12.0898 2.82713 -45.1346
LeftForeArm  29.5548 -11.7137 -10.7184
LeftHand  -0.0362753 4.87948 2.84935
RightShoulder  0.608739 -1.48793 27.2089
RightArm  -20.6121 -3.00577 46.182
RightForeArm  72.8905 -5.66006 6.36856
RightHand  0.224971 -7.32704 -14.6891
LeftUpLeg  8.54477 -9.74473 -3.06232
LeftLeg  25.4098 -12.7574 -6.20431
LeftFoot  -12.9815 0.167179 6.21551
LeftToes  -6.11857e-011 5.00151e-011 -2.22593e-011
405
root  -18.3023 38.2379 24.706 160.053 -75.5223 -154.97
RightUpLeg  -25.3819 5.60266 7.58624
RightLeg  14.4911 0.17796 0.0650975
RightFoot  3.06351 -0.712685 5.8001
RightToes  5.38607e-012 1.2921e-014 -6.02303e-014
Spine  -8.99385 -5.06853 5.32707
Spine1  10.85 -6.81767 4.44404
HEad  30.9128 7.3657 -4.67224
LeftShoulder1  1.10448 -0.221404 -25.395
LeftArm  10.247 2.58777 -46.9116
LeftForeArm  31.3872 -10.7572 -11.0389
LeftHand  -0.0401978 4.69195 2.9024
RightShoulder  0.700402 -1.2056 27.1236
RightArm  -22.1828 -1.57412 45.0699
RightForeArm  71.5283 -5.57807 5.53179
RightHand  0.247353 -7.27642 -16.2989
LeftUpLeg  6.06982 -6.97037 0.0264754
LeftLeg  33.0335 -16.8163 -11.1364
LeftFoot  -8.39232 0.0118682 1.4999
LeftToes  -6.11857e-011 5.00151e-011 -2.22593e-011
406
root  -19.3278 38.2412 24.5374 154.389 -75.8302 -149.251
RightUpLeg  -24.7255 4.80868 8.86344
RightLeg  16.7053 0.238817 0.379813
RightFoot  1.70892 -0.394367 3.54797
RightToes  5.38607e-012 1.2921e-014 -6.02303e-014
Spine  -8.47089 -4.82466 7.00433
Spine1  10.3694 -6.70511 5.35878
HEad  30.606 5.23951 -4.87568
LeftShoulder1  1.15942 -0.468577 -24.7742
LeftArm  5.19532 3.00001 -49.0681
LeftForeArm  34.4395 -9.25267 -11.1236
LeftHand  -0.0417362 4.55924 2.72372
RightShoulder  0.782396 -0.934983 26.8021
RightArm  -24.8872 0.361069 45.0955
RightForeArm  72.6282 -5.25032 3.81049
RightHand  0.276117 -7.43953 -16.6166
LeftUpLeg  1.47784 -5.48833 3.24999
LeftLeg  42.9442 -18.421 -17.1626
LeftFoot  -3.14636 0.812621 -11.0553
LeftToes  -6.11857e-011 5.00151e-011 -2.22593e-011
407
root  -20.2681 38.2008 24.4003 148.308 -76.2924 -143.297
RightUpLeg  -23.9784 3.54918 9.79937
RightLeg  18.8843 0.357715 0.904354
RightFoot  -0.475653 -0.21478 2.22314
RightToes  5.38607e-012 1.2921e-014 -6.02303e-014
Spine  -7.7638 -4.72466 8.59448
Spine1  10.0836 -6.6246 5.98541
HEad  29.8571 2.86137 -4.47278
LeftShoulder1  1.24239 -0.820706 -24.1354
LeftArm  1.68177 2.94048 -50.8641
LeftForeArm  35.816 -7.90779 -11.1747
LeftHand  -0.0409238 4.49087 2.75958
RightShoulder  0.839296 -0.751931 26.683
RightArm  -26.9095 2.22459 45.5316
RightForeArm  73.5077 -4.98071 2.40857
RightHand  0.293921 -7.76007 -15.3714
LeftUpLeg  -4.27259 -5.37475 5.83349
LeftLeg  52.2926 -16.448 -21.1189
LeftFoot  4.38395 3.17262 -22.8955
LeftToes  -6.11857e-011 5.00151e-011 -2.22593e-011
408
root  -21.2224 38.2415 24.2495 143.626 -76.7645 -139.166
RightUpLeg  -22.1728 1.98021 10.1578
RightLeg  19.9663 0.706055 1.65885
RightFoot  -2.75995 -0.155289 1.81852
RightToes  5.38607e-012 1.2921e-014 -6.02303e-014
Spine  -7.06411 -4.57362 9.61318
Spine1  9.93181 -6.33193 6.08685
HEad  29.225 0.24598 -3.59159
LeftShoulder1  1.32892 -1.14878 -23.8483
LeftArm  0.664528 2.29521 -51.8045
LeftForeArm  36.4917 -6.9235 -11.3655
LeftHand  -0.0406166 4.41598 2.69468
RightShoulder  0.89331 -0.613858 27.0366
RightArm  -27.1826 4.14147 45.7557
RightForeArm  72.9687 -4.95483 2.12523
RightHand  0.294147 -7.86786 -14.7716
LeftUpLeg  -9.33809 -5.33754 7.37466
LeftLeg  59.2849 -12.9976 -21.8655
LeftFoot  5.66281 3.28415 -21.9626
LeftToes  -6.11857e-011 5.00151e-011 -2.22593e-011
409
root  -22.2205 38.3825 24.044 142.758 -77.0988 -138.993
RightUpLeg  -19.6505 1.00564 9.99238
RightLeg  20.0173 1.21088 2.17831
RightFoot  -4.6526 -0.1178 1.47401
RightToes  5.38607e-012 1.2921e-014 -6.02303e-014
Spine  -6.55004 -4.24553 9.52549
Spine1  9.63099 -5.83873 5.94206
HEad  28.9221 -2.06326 -2.61004
LeftShoulder1  1.33371 -1.20067 -23.5986
LeftArm  0.253265 2.00649 -52.3202
LeftForeArm  37.1933 -6.6011 -11.3946
LeftHand  -0.0418571 4.32722 2.51294
RightShoulder  0.95523 -0.457822 27.4261
RightArm  -26.7081 6.40181 46.3028
RightForeArm  72.4932 -4.99955 2.27762
RightHand  0.279165 -7.6677 -15.2447
LeftUpLeg  -13.5922 -4.73064 8.16469
LeftLeg  62.7545 -8.63092 -17.1029
LeftFoot  0.636769 1.91312 -18.1431
LeftToes  -6.11857e-011 5.00151e-011 -2.22593e-011
410
root  -23.2017 38.5103 23.8345 144.574 -77.2901 -141.43
RightUpLeg  -17.3259 0.453948 9.65014
RightLeg  20.1536 1.83068 2.29306
RightFoot  -6.29357 -0.0971733 1.23453
RightToes  5.38607e-012 1.2921e-014 -6.02303e-014
Spine  -6.12622 -3.8842 8.99739
Spine1  9.21051 -5.29787 5.62256
HEad  28.7552 -3.93609 -1.78804
LeftShoulder1  1.33164 -1.22177 -23.405
LeftArm  0.0268367 2.52331 -52.3141
LeftForeArm  37.3467 -7.07767 -11.1955
LeftHand  -0.0441915 4.29754 2.44672
RightShoulder  1.06716 -0.138081 27.6101
RightArm  -25.8954 8.61917 47.4298
RightForeArm  72.2413 -5.0666 2.61695
RightHand  0.30118 -7.62147 -16.5829
LeftUpLeg  -17.485 -3.5584 8.58576
LeftLeg  63.4361 -5.32882 -10.8829
LeftFoot  -1.54418 1.21606 -14.0251
LeftToes  -6.11857e-011 5.00151e-011 -2.22593e-011
